<?xml version="1.0" encoding="UTF-8"?>
<svg id="Ebene_1" xmlns="http://www.w3.org/2000/svg" version="1.1" viewBox="0 0 793.28 234.77">
  <!-- Generator: Adobe Illustrator 29.3.1, SVG Export Plug-In . SVG Version: 2.1.0 Build 151)  -->
  <defs>
    <style>
      .st0 {
        fill: #fff;
      }

      .st1 {
        fill: #007bb8;
      }

      .st2 {
        fill: #ffa100;
      }

      .st3 {
        fill: #f6a500;
      }
    </style>
  </defs>
  <polygon class="st0" points="579.9 173.21 593.3 173.21 600.41 137.17 606.34 173.21 619.61 173.21 633.36 112.52 619.61 112.52 612.74 151.93 606.34 112.52 594.84 112.52 587.73 151.93 581.33 112.52 567.58 112.52 579.9 173.21"/>
  <path class="st0" d="M658.85,135.99h-10.08v-7.47c0-3.79,1.54-6.05,5.22-6.05,4.86,0,4.86,4.39,4.86,6.05v7.47ZM672.84,145.95v-17.31c0-3.56-.71-8.53-4.15-12.09-3.68-3.56-9.13-5.33-14.7-5.33-4.27,0-9.25,1.07-12.8,3.56-3.91,2.73-6.52,6.99-6.52,14.58v25.6c0,12.21,5.57,19.44,19.44,19.44,8.77,0,18.49-3.2,18.49-16.36v-4.86h-13.75c0,6.28-.12,6.99-1.19,8.42-.83,1.07-2.13,1.78-3.79,1.78-5.22,0-5.22-4.86-5.22-7.47v-9.96h24.18Z"/>
  <rect class="st0" x="677.58" y="112.52" width="14.22" height="60.69"/>
  <polygon class="st0" points="698.22 112.52 698.22 124.02 717.18 124.02 695.97 161.36 699.22 173.21 732.59 173.21 732.59 161.36 710.55 161.36 731.65 124.02 731.65 112.52 698.22 112.52"/>
  <path class="st0" d="M193.83,158.27c0,8.42,3.2,16.12,18.37,16.12,18.73,0,18.73-11.02,18.73-18.73,0-3.91-.36-7.11-2.02-9.48-.47-.83-3.08-3.44-3.91-4.03l-12.92-9.13c-3.91-2.73-4.03-4.98-4.03-6.64,0-5.1,2.96-5.45,4.98-5.45,5.1,0,5.1,4.03,5.1,10.91h12.21v-6.64c0-8.65-4.98-13.99-17.31-13.99-9.96,0-18.25,2.84-18.25,15.65,0,6.52,1.78,9.01,3.32,10.79.95,1.18,3.08,3.2,3.91,3.79l11.73,8.3c3.91,2.73,4.15,4.39,4.15,7.94,0,5.22-2.37,6.64-5.45,6.64-5.57,0-5.57-3.68-5.57-12.45h-13.04v6.4Z"/>
  <path class="st0" d="M236.51,158.27c0,3.44,0,4.74.36,6.64,1.3,7.59,7.47,9.36,11.38,9.36,6.16,0,9.96-3.44,13.04-5.93l7.91,4.86h6.31v-60.69h-14.22v42.91c0,3.2,0,8.06-5.45,8.06s-5.21-4.27-5.21-7.23v-43.74h-14.11v45.76Z"/>
  <path class="st0" d="M306.53,155.19c0,1.9,0,7.35-5.93,7.35-5.45,0-5.45-3.91-5.45-6.88v-25.84c0-2.96,0-7.71,5.45-7.71,5.93,0,5.93,5.1,5.93,6.99v26.08ZM320.64,173.21v-83.81h-.12c-3.81-.05-13.7,3.92-13.87,12.34v15.64c-2.96-2.61-6.76-6.16-12.33-6.16-3.32,0-8.89,1.78-11.5,7.11-1.19,2.37-1.66,4.74-1.66,9.01v27.74c0,5.93.24,9.96,1.78,12.92,1.78,3.32,6.16,6.4,11.85,6.4,6.76,0,9.48-3.91,11.73-7.11l7.94,5.93h6.17Z"/>
  <path class="st0" d="M350.19,158.27c0,2.25,0,6.4-4.98,6.4s-4.86-4.74-4.86-6.28v-30.82c0-2.85,0-7.47,5.1-7.47,4.27,0,4.74,3.91,4.74,7.35v30.82ZM364.17,157.44v-29.16c0-4.86-.83-10.08-5.93-13.63-3.56-2.37-8.53-3.32-12.8-3.32-16.71,0-19.2,10.19-19.2,17.54v27.14c0,4.51,0,18.37,18.49,18.37,12.57,0,19.44-6.05,19.44-16.95"/>
  <path class="st0" d="M368.32,158.27c0,8.42,3.2,16.12,18.37,16.12,18.73,0,18.73-11.02,18.73-18.73,0-3.91-.35-7.11-2.01-9.48-.47-.83-3.08-3.44-3.91-4.03l-12.92-9.13c-3.91-2.73-4.03-4.98-4.03-6.64,0-5.1,2.96-5.45,4.98-5.45,5.09,0,5.09,4.03,5.09,10.91h12.21v-6.64c0-8.65-4.98-13.99-17.31-13.99-9.96,0-18.26,2.84-18.26,15.65,0,6.52,1.78,9.01,3.32,10.79.95,1.18,3.08,3.2,3.91,3.79l11.73,8.3c3.91,2.73,4.15,4.39,4.15,7.94,0,5.22-2.37,6.64-5.45,6.64-5.57,0-5.57-3.68-5.57-12.45h-13.04v6.4Z"/>
  <path class="st0" d="M414.43,112.52h-7.59v9.36h7.71v39.24c0,7.71,2.01,12.68,15.29,12.68,1.78,0,3.12-.21,4.36-.7l3.1-10.09c-.9.1-1.54.12-2.49.12-5.69,0-6.4-2.73-6.4-6.64v-34.61h8.53v-9.36h-8.42v-23.01h-.12c-3.81-.05-13.82,3.92-13.98,12.34v10.67Z"/>
  <path class="st0" d="M526.11,173.21h14.11v-44.1c0-4.03,1.78-6.52,5.57-6.52,5.22,0,5.22,4.39,5.22,7.47v43.15h13.99v-47.65c0-12.21-8.42-14.34-12.68-14.34-6.52,0-9.96,3.68-12.33,6.16v-27.87s-.11,0-.11,0c-3.81-.05-13.62,3.92-13.78,12.34l.02,71.37Z"/>
  <path class="st0" d="M440.15,158.27c0,8.42,3.2,16.12,18.37,16.12,18.73,0,18.73-11.02,18.73-18.73,0-3.91-.36-7.11-2.02-9.48-.47-.83-3.08-3.44-3.91-4.03l-12.92-9.13c-3.91-2.73-4.03-4.98-4.03-6.64,0-5.1,2.96-5.45,4.98-5.45,5.1,0,5.1,4.03,5.1,10.91h12.21v-6.64c0-8.65-4.98-13.99-17.31-13.99-9.96,0-18.25,2.84-18.25,15.65,0,6.52,1.78,9.01,3.32,10.79.95,1.18,3.08,3.2,3.91,3.79l11.73,8.3c3.91,2.73,4.15,4.39,4.15,7.94,0,5.22-2.37,6.64-5.45,6.64-5.57,0-5.57-3.68-5.57-12.45h-13.04v6.4Z"/>
  <path class="st0" d="M521.01,135.51v-7.23c0-5.81-1.3-9.6-4.98-12.68-3.56-2.85-9.13-4.27-14.34-4.27-6.16,0-12.45,1.9-16.24,6.76-2.61,3.2-3.44,7.59-3.44,11.74v26.91c0,4.98.71,9.84,5.33,13.51,4.74,3.79,11.26,4.15,14.34,4.15,12.68,0,19.32-6.05,19.32-18.37v-6.88h-13.99v6.99c0,2.49-.12,7.82-5.45,7.82s-5.57-5.1-5.57-7.94v-26.32c0-2.96,0-8.3,5.81-8.3,5.22,0,5.22,4.74,5.22,6.76v7.35h13.99Z"/>
  <path class="st0" d="M250.32,100.12v-10.76h-14.11v14.7c5.28-.45,11.61-2.23,14.11-3.93"/>
  <path class="st0" d="M275.21,100.12v-10.76h-14.11v14.7c5.28-.45,11.61-2.23,14.11-3.93"/>
  <path class="st0" d="M691.8,100.12v-10.76h-14.11v14.7c5.28-.45,11.61-2.23,14.11-3.93"/>
  <path class="st3" d="M106.71,60.73c-7.83,0-14.17,6.35-14.17,14.17s6.34,14.17,14.17,14.17,14.17-6.34,14.17-14.17-6.34-14.17-14.17-14.17"/>
  <path class="st1" d="M106.71,60.73c-7.83,0-14.17,6.35-14.17,14.17s6.34,14.17,14.17,14.17,14.17-6.35,14.17-14.17-6.34-14.17-14.17-14.17"/>
  <path class="st0" d="M97.21,71.58l1.77,1.84c2.02-1.95,4.77-3.15,7.79-3.15s5.63,1.14,7.63,3l1.74-1.87c-2.46-2.28-5.76-3.69-9.37-3.69s-7.08,1.48-9.56,3.87"/>
  <path class="st0" d="M100.84,75.35l1.77,1.84c1.08-1.04,2.54-1.68,4.16-1.68s3,.61,4.07,1.6l1.74-1.87c-1.53-1.42-3.57-2.28-5.81-2.28s-4.39.92-5.93,2.4"/>
  <path class="st0" d="M106.77,81.51l2.27-2.45c-.6-.55-1.39-.89-2.27-.89s-1.72.36-2.32.94l2.31,2.4Z"/>
  <path class="st1" d="M74.86,60.69c-7.83,0-14.17,6.35-14.17,14.17s6.34,14.17,14.17,14.17,14.17-6.35,14.17-14.17-6.34-14.17-14.17-14.17"/>
  <rect class="st0" x="68.37" y="73.68" width="12.99" height="2.36"/>
  <rect class="st0" x="68.37" y="68.96" width="12.99" height="2.36"/>
  <rect class="st0" x="68.37" y="78.41" width="8.27" height="2.36"/>
  <path class="st2" d="M131.56,89.36c-23.48,0-42.52,19.04-42.52,42.52s19.04,42.52,42.52,42.52,42.52-19.04,42.52-42.52-20.83-42.52-42.52-42.52"/>
  <polygon class="st0" points="125.45 152.4 130.73 152.4 130.73 153.78 128.97 153.78 128.97 161.93 127.2 161.93 127.2 153.78 125.45 153.78 125.45 152.4"/>
  <polygon class="st0" points="131.79 152.4 133.66 152.4 134.59 158.7 135.45 152.4 137.25 152.4 135.45 161.93 133.68 161.93 131.79 152.4"/>
  <g>
    <path class="st0" d="M105.03,137.19v.71c0,3.52,2.86,6.38,6.38,6.38h40.34c3.52,0,6.38-2.86,6.38-6.38v-.71h-53.1Z"/>
    <path class="st0" d="M158.13,115.93v-.71c0-3.52-2.86-6.38-6.38-6.38h-40.34c-3.52,0-6.38,2.86-6.38,6.38v.71h53.1Z"/>
  </g>
  <rect class="st0" x="105.03" y="122.99" width="53.1" height="7.12"/>
  <path class="st1" d="M74.86,92.58c-7.83,0-14.17,6.34-14.17,14.17s6.34,14.17,14.17,14.17,14.17-6.35,14.17-14.17-6.34-14.17-14.17-14.17"/>
  <rect class="st0" x="73.68" y="97.9" width="2.36" height="7.7"/>
  <rect class="st0" x="68.96" y="102.33" width="2.36" height="3.27"/>
  <rect class="st0" x="73.68" y="107.94" width="2.36" height="7.09"/>
  <rect class="st0" x="68.96" y="107.94" width="2.36" height="4.75"/>
  <rect class="st0" x="78.41" y="101.15" width="2.36" height="4.45"/>
  <rect class="st0" x="78.41" y="107.94" width="2.36" height="3.57"/>
</svg>